<svg width="70" height="70" viewBox="0 0 70 70" fill="none" xmlns="http://www.w3.org/2000/svg">
<path d="M35 0.5C54.0538 0.5 69.5 15.9462 69.5 35C69.5 54.0538 54.0538 69.5 35 69.5C15.9462 69.5 0.5 54.0538 0.5 35C0.5 15.9462 15.9462 0.5 35 0.5Z" fill="white" stroke="#DAE6DA"/>
<g clip-path="url(#clip0_3656_15069)">
<path d="M46.4478 31.1681V29.9378C46.4478 26.9933 45.4058 24.2571 43.5167 22.2269C41.5806 20.1429 38.9184 19 36.0142 19H34.9991C32.0949 19 29.4327 20.1429 27.4966 22.2269C25.6075 24.2571 24.5655 26.9933 24.5655 29.9378V31.1681C22.273 31.3227 20.4512 33.2319 20.4512 35.5647V37.4874C20.4512 39.9143 22.4276 41.8908 24.8545 41.8908H27.3352C27.7789 41.8908 28.1419 41.5277 28.1419 41.084V31.9613C28.1419 31.5176 27.7789 31.1546 27.3352 31.1546H26.1789V29.9378C26.1789 24.6202 29.9705 20.6134 34.9923 20.6134H36.0075C41.036 20.6134 44.8209 24.6202 44.8209 29.9378V31.1546H43.6646C43.2209 31.1546 42.8579 31.5176 42.8579 31.9613V41.0773C42.8579 41.521 43.2209 41.884 43.6646 41.884H44.794C44.4646 46.0924 41.5671 47.0672 40.2226 47.2891C39.8529 46.1529 38.7839 45.3328 37.5268 45.3328H35.51C33.9503 45.3328 32.6797 46.6034 32.6797 48.163C32.6797 49.7227 33.9503 51 35.51 51H37.5335C38.8377 51 39.9335 50.1126 40.2629 48.916C40.9218 48.8218 41.9638 48.5866 42.9991 47.9815C44.4579 47.1277 46.1856 45.3866 46.4142 41.8773C48.7201 41.7361 50.5487 39.8202 50.5487 37.4807V35.558C50.5554 33.2319 48.7402 31.316 46.4478 31.1681ZM26.5419 40.2706H24.868C23.3285 40.2706 22.0781 39.0202 22.0781 37.4807V35.558C22.0781 34.0185 23.3285 32.7681 24.868 32.7681H26.5419V40.2706ZM37.5335 49.3866H35.51C34.8377 49.3866 34.2932 48.842 34.2932 48.1697C34.2932 47.4975 34.8377 46.9529 35.51 46.9529H37.5335C38.2058 46.9529 38.7503 47.4975 38.7503 48.1697C38.7503 48.842 38.2058 49.3866 37.5335 49.3866ZM48.9419 37.4807C48.9419 39.0202 47.6915 40.2706 46.152 40.2706H44.4781V32.7681H46.152C47.6915 32.7681 48.9419 34.0185 48.9419 35.558V37.4807Z" fill="#00B307"/>
</g>
<defs>
<clipPath id="clip0_3656_15069">
<rect width="32" height="32" fill="white" transform="translate(19.5 19)"/>
</clipPath>
</defs>
</svg>
