<svg width="70" height="70" viewBox="0 0 70 70" fill="none" xmlns="http://www.w3.org/2000/svg">
<path d="M35 0.5C54.0538 0.5 69.5 15.9462 69.5 35C69.5 54.0538 54.0538 69.5 35 69.5C15.9462 69.5 0.5 54.0538 0.5 35C0.5 15.9462 15.9462 0.5 35 0.5Z" fill="white" stroke="#DAE6DA"/>
<g clip-path="url(#clip0_3656_15091)">
<path d="M50.2166 26.5441C50.2166 26.4225 50.1895 26.301 50.1355 26.1862C50.0274 25.9565 49.8181 25.8012 49.5884 25.7539L35.8307 19.081C35.6079 18.973 35.3445 18.973 35.1216 19.081L21.2288 25.8147C20.9586 25.943 20.783 26.2132 20.7695 26.5171V26.5239C20.7695 26.5306 20.7695 26.5374 20.7695 26.5509V43.4491C20.7695 43.7598 20.9451 44.0435 21.2288 44.1786L35.1216 50.9122C35.1283 50.9122 35.1283 50.9122 35.1351 50.919C35.1553 50.9257 35.1756 50.9325 35.1959 50.946C35.2026 50.946 35.2094 50.9527 35.2229 50.9527C35.2431 50.9595 35.2634 50.9662 35.2837 50.973C35.2904 50.973 35.2972 50.9797 35.3039 50.9797C35.3242 50.9865 35.3512 50.9865 35.3715 50.9932C35.3782 50.9932 35.385 50.9932 35.3917 50.9932C35.4187 50.9932 35.4525 51 35.4795 51C35.5066 51 35.5403 51 35.5673 50.9932C35.5741 50.9932 35.5808 50.9932 35.5876 50.9932C35.6079 50.9932 35.6349 50.9865 35.6551 50.9797C35.6619 50.9797 35.6686 50.973 35.6754 50.973C35.6957 50.9662 35.7159 50.9595 35.7362 50.9527C35.7429 50.9527 35.7497 50.946 35.7632 50.946C35.7835 50.9392 35.8037 50.9325 35.824 50.919C35.8307 50.919 35.8307 50.919 35.8375 50.9122L49.7708 44.1583C50.0477 44.0232 50.2301 43.7396 50.2301 43.4289V26.5644C50.2166 26.5576 50.2166 26.5509 50.2166 26.5441ZM35.4728 20.7087L47.5217 26.5509L43.0844 28.7054L31.0355 22.8632L35.4728 20.7087ZM35.4728 32.393L23.4238 26.5509L29.1781 23.7615L41.2271 29.6036L35.4728 32.393ZM22.3905 27.8544L34.6623 33.8046V48.886L22.3905 42.9358V27.8544ZM36.2832 48.886V33.8046L42.0443 31.0084V34.9527C42.0443 35.3985 42.409 35.7632 42.8548 35.7632C43.3006 35.7632 43.6653 35.3985 43.6653 34.9527V30.2182L48.5956 27.8274V42.9088L36.2832 48.886Z" fill="#00B307"/>
</g>
<defs>
<clipPath id="clip0_3656_15091">
<rect width="32" height="32" fill="white" transform="translate(19.5 19)"/>
</clipPath>
</defs>
</svg>
