<svg width="70" height="70" viewBox="0 0 70 70" fill="none" xmlns="http://www.w3.org/2000/svg">
<path d="M35 0.5C54.0538 0.5 69.5 15.9462 69.5 35C69.5 54.0538 54.0538 69.5 35 69.5C15.9462 69.5 0.5 54.0538 0.5 35C0.5 15.9462 15.9462 0.5 35 0.5Z" fill="white" stroke="#DAE6DA"/>
<g clip-path="url(#clip0_3656_15079)">
<path d="M47.784 46.7342L45.9426 25.9816C45.9095 25.5709 45.565 25.2596 45.1477 25.2596H41.2661C41.2595 21.8085 38.451 19 34.9999 19C31.5489 19 28.7403 21.8085 28.7337 25.2596H24.8521C24.4414 25.2596 24.097 25.5709 24.0573 25.9816L22.2158 46.7342C22.2158 46.7607 22.2158 46.7806 22.2158 46.8071C22.2158 49.1188 24.3421 51 26.9519 51H43.0479C45.6578 51 47.784 49.1188 47.784 46.8071C47.784 46.7806 47.784 46.7607 47.784 46.7342ZM34.9999 20.5897C37.5766 20.5897 39.6698 22.6829 39.6764 25.2596H30.3235C30.3301 22.6829 32.4232 20.5897 34.9999 20.5897ZM43.0479 49.4036H26.9519C25.2297 49.4036 23.8254 48.2577 23.8056 46.8336L25.5808 26.8493H28.7337V29.638C28.7337 30.0751 29.0914 30.4328 29.5286 30.4328C29.9658 30.4328 30.3235 30.0751 30.3235 29.638V26.8493H39.6764V29.638C39.6764 30.0751 40.0341 30.4328 40.4713 30.4328C40.9084 30.4328 41.2661 30.0751 41.2661 29.638V26.8493H44.4191L46.1943 46.8402C46.1744 48.2577 44.7702 49.4036 43.0479 49.4036Z" fill="#00B307"/>
<path d="M38.3054 35.5465L33.6156 40.2362L31.7013 38.3219C31.39 38.0105 30.8866 38.0105 30.5753 38.3219C30.264 38.6332 30.264 39.1366 30.5753 39.4479L33.0526 41.9253C33.205 42.0776 33.4103 42.1571 33.6156 42.1571C33.821 42.1571 34.0197 42.0776 34.1787 41.9253L39.4314 36.6725C39.7427 36.3612 39.7427 35.8578 39.4314 35.5465C39.1201 35.2418 38.6167 35.2418 38.3054 35.5465Z" fill="#00B307"/>
</g>
<defs>
<clipPath id="clip0_3656_15079">
<rect width="32" height="32" fill="white" transform="translate(19 19)"/>
</clipPath>
</defs>
</svg>
